#!OML:ASF F:\VICON\USERDATA\INSTALL\rory3\rory3.ASF
:FULLY-SPECIFIED
:DEGREES
1
root 0.8911960000000001 17.614 -27.75390000000005 -2.55712 2.478079999999995 2.7007300000000005
lfemur 18.614199999999993 -5.087229999999996 -27.7187
ltibia 16.862499999999986
lfoot -13.176999999999992 -5.263039999999993
ltoes -9.932010000000002
rfemur -28.62990000000002 5.429940000000002 18.516799999999986
rtibia 22.819499999999966
rfoot -8.44017 -12.094799999999996
rtoes -0.03645980000000515
lowerback 1.0 -2.062110000000001 -5.642150000000015
upperback 0.407811 -3.252310000000006 1.71921
thorax -4.319559999999999 -1.4846800000000018 5.385549999999997
lowerneck -17.0075 -2.221449999999998 -1.99563
upperneck 21.1725 -2.488549999999998 -0.288091999999998
head 9.52292 -1.3565599999999993 -0.0942617000000002
lclavicle 1.1852500000000015e-14 -8.74653000000002e-15
lhumerus -23.189300000000006 -0.9676609999999972 81.1787
lradius 30.576700000000006
lwrist 6.02999
lhand -32.6705 25.677999999999997
lfingers 7.12502
lthumb -5.896100000000005 55.576
rclavicle 1.1852500000000015e-14 -8.74653000000002e-15
rhumerus -32.956599999999995 -19.2232 -77.3112
rradius 25.2239
rwrist 5.40849
rhand -17.4642 1.0
rfingers 7.12502
rthumb 8.78745 -7.2208
2
root 0.849856 17.6955 -27.102300000000035 -2.650009999999999 2.2693199999999987 0.7104609999999987
lfemur 17.45849999999997 -6.321409999999999 -25.8944
ltibia 22.694200000000016
lfoot -11.011300000000006 -5.646639999999997
ltoes -19.246700000000004
rfemur -27.594500000000018 6.049090000000003 20.8229
rtibia 23.942599999999977
rfoot -5.896039999999996 -10.803
rtoes 1.397269999999998
lowerback 1.0 -1.9807699999999997 -3.3945399999999872
upperback 0.381798 -2.88067000000001 2.1965800000000013
thorax -4.365559999999999 -1.3391099999999954 4.563270000000007
lowerneck -17.1162 -2.80286 -2.31171
upperneck 22.0005 -3.202019999999999 -0.3368589999999996
head 9.84753 -1.7212500000000002 -0.16271200000000027
lclavicle 3.202920000000007e-14 -8.74653000000002e-15
lhumerus -23.558399999999995 -0.8214280000000025 81.7498
lradius 30.69729999999999
lwrist 6.175359999999998
lhand -32.7199 24.2815
lfingers 7.12502
lthumb -5.94376 54.1781
rclavicle 3.202920000000007e-14 -8.74653000000002e-15
rhumerus -33.3692 -21.375900000000005 -76.0193
rradius 24.0079
rwrist 6.891790000000002
rhand -17.5816 1.0
rfingers 7.12502
rthumb 8.67414 -7.125600000000001
3
root 0.8335859999999995 17.7465 -26.46790000000002 -2.9807299999999994 1.1947299999999967 -0.28432500000000127
lfemur 15.790700000000019 -5.496209999999996 -24.7255
ltibia 29.110600000000005
lfoot -4.3103799999999985 -10.310799999999986
ltoes -13.095600000000001
rfemur -26.404000000000025 5.07698 22.7241
rtibia 25.95049999999998
rfoot -4.515869999999993 -7.423239999999998
rtoes -1.6041100000000053
lowerback 1.0 -1.804129999999999 -2.242750000000003
upperback 0.10914800000000002 -2.50849 2.6294500000000016
thorax -4.89438 -1.1574900000000015 4.346490000000001
lowerneck -16.5552 -2.57365 -2.417279999999999
upperneck 22.0809 -2.8135900000000014 -0.5656499999999982
head 9.76593 -1.5793299999999997 -0.16555399999999956
lclavicle 2.2276300000000017e-14 7.951390000000001e-15
lhumerus -25.151399999999995 0.5546039999999999 82.3009
lradius 30.757499999999986
lwrist 6.447179999999998
lhand -32.59510000000001 26.414299999999997
lfingers 7.12502
lthumb -5.823320000000012 56.3143
rclavicle 2.2276300000000017e-14 7.951390000000001e-15
rhumerus -34.2923 -23.027300000000007 -74.0547
rradius 22.41720000000001
rwrist 9.09067
rhand -17.2197 1.0
rfingers 7.12502
rthumb 9.02335 -6.41996
4
root 0.7917870000000006 17.8382 -25.840899999999905 -2.9551199999999986 1.2396399999999983 -0.3166719999999965
lfemur 12.595700000000036 -4.588540000000004 -23.800199999999997
ltibia 36.066
lfoot 5.464070000000021 -12.935100000000016
ltoes -11.760799999999994
rfemur -25.378399999999985 3.898330000000001 23.1615
rtibia 28.143
rfoot -4.979989999999999 -5.710699999999999
rtoes 4.24621
lowerback 1.0 -1.883769999999998 -2.2106300000000023
upperback -0.003193560000000595 -2.6017999999999972 2.7912599999999976
thorax -4.97226 -1.199299999999997 4.512319999999999
lowerneck -16.9887 -2.4502299999999986 -2.7844900000000017
upperneck 22.272499999999997 -2.5673699999999977 -0.3919899999999996
head 9.92201 -1.4764000000000006 -0.01851160000000021
lclavicle -5.8765699999999944e-15 -2.3854200000000004e-15
lhumerus -26.685799999999997 1.9356600000000028 82.5349
lradius 30.387900000000005
lwrist 6.098770000000004
lhand -32.6986 16.155900000000017
lfingers 7.12502
lthumb -5.923239999999994 46.0531
rclavicle -5.8765699999999944e-15 -2.3854200000000004e-15
rhumerus -34.438 -24.310100000000006 -72.81590000000001
rradius 21.504200000000008
rwrist 10.591
rhand -16.8238 1.0
rfingers 7.12502
rthumb 9.405340000000002 -6.9024399999999995
5
root 0.7409510000000006 17.8778 -25.2472000000001 -3.35112 1.0382499999999917 -1.2012300000000007
lfemur 9.044690000000035 -3.074960000000001 -21.839600000000004
ltibia 43.488500000000016
lfoot 11.524599999999976 -14.265699999999995
ltoes 9.643180000000008
rfemur -23.457299999999986 3.063039999999998 24.8109
rtibia 29.16489999999999
rfoot -5.305669999999996 -3.4935599999999964
rtoes 4.493660000000002
lowerback 1.0 -1.7064600000000016 -1.2991299999999968
upperback 0.07611569999999973 -2.2598499999999904 2.9259399999999967
thorax -5.1466 -1.047899999999999 4.107389999999999
lowerneck -16.3689 -2.5806999999999993 -2.53118
upperneck 21.5692 -2.8469299999999995 -0.36155299999999757
head 9.5559 -1.5785799999999997 -0.07302660000000011
lclavicle 6.99474e-15 -3.1805500000000027e-15
lhumerus -27.7253 1.1998100000000007 83.0435
lradius 30.9528
lwrist 6.896279999999999
lhand -31.276299999999992 20.263200000000005
lfingers 7.12502
lthumb -4.5499100000000015 50.19440000000001
rclavicle 6.99474e-15 -3.1805500000000027e-15
rhumerus -34.790500000000016 -24.490999999999993 -72.66829999999999
rradius 21.670099999999998
rwrist 10.209000000000003
rhand -16.5 1.0
rfingers 7.12502
rthumb 9.717730000000001 -7.23937
